<svg width="530" height="380" viewBox="0 0 530 380" fill="none" xmlns="http://www.w3.org/2000/svg">
<path fill-rule="evenodd" clip-rule="evenodd" d="M309.392 283L313.016 284.667L314 288.197L312.842 291.557L309.392 293L306.143 291.361L304 288.196L305.62 284.522L309.392 283Z" fill="white"/>
<path fill-rule="evenodd" clip-rule="evenodd" d="M371.696 292L373.508 292.833L374 294.598L373.421 296.278L371.696 297L370.072 296.18L369 294.598L369.81 292.761L371.696 292ZM337.696 359L339.508 359.833L340 361.598L339.421 363.278L337.696 364L336.072 363.18L335 361.598L335.81 359.761L337.696 359Z" fill="#556B8B"/>
<path fill-rule="evenodd" clip-rule="evenodd" d="M315.314 315L318.213 316.334L319 319.157L318.074 321.845L315.314 323L312.714 321.69L311 319.157L312.295 316.217L315.314 315ZM346.314 321L349.213 322.334L350 325.157L349.074 327.845L346.314 329L343.714 327.69L342 325.157L343.295 322.217L346.314 321Z" fill="#7487A3"/>
<path fill-rule="evenodd" clip-rule="evenodd" d="M373.696 364L375.508 364.833L376 366.598L375.421 368.278L373.696 369L372.072 368.18L371 366.598L371.81 364.761L373.696 364ZM409.696 326L411.508 326.833L412 328.598L411.421 330.278L409.696 331L408.072 330.18L407 328.598L407.81 326.761L409.696 326ZM379.696 326L381.508 326.833L382 328.598L381.421 330.278L379.696 331L378.072 330.18L377 328.598L377.81 326.761L379.696 326ZM419.618 346L420.705 346.5L421 347.559L420.653 348.567L419.618 349L418.643 348.508L418 347.558L418.486 346.457L419.618 346Z" fill="#556B8B"/>
</svg>
