<svg width="117" height="86" viewBox="0 0 117 86" fill="none" xmlns="http://www.w3.org/2000/svg">
<path fill-rule="evenodd" clip-rule="evenodd" d="M5.392 0L9.01599 1.66699L10 5.19699L8.84201 8.55701L5.392 10L2.14301 8.36099L0 5.19601L1.62 1.522L5.392 0Z" fill="white"/>
<path fill-rule="evenodd" clip-rule="evenodd" d="M67.696 9L69.508 9.83301L70 11.598L69.421 13.278L67.696 14L66.072 13.18L65 11.598L65.81 9.76099L67.696 9ZM33.696 76L35.508 76.833L36 78.598L35.421 80.278L33.696 81L32.072 80.18L31 78.598L31.81 76.761L33.696 76Z" fill="#556B8B"/>
<path fill-rule="evenodd" clip-rule="evenodd" d="M11.314 32L14.213 33.334L15 36.157L14.074 38.845L11.314 40L8.71399 38.69L7 36.157L8.29501 33.217L11.314 32ZM42.314 38L45.213 39.334L46 42.157L45.074 44.845L42.314 46L39.714 44.69L38 42.157L39.295 39.217L42.314 38Z" fill="#7487A3"/>
<path fill-rule="evenodd" clip-rule="evenodd" d="M69.696 81L71.508 81.833L72 83.598L71.421 85.278L69.696 86L68.072 85.18L67 83.598L67.81 81.761L69.696 81ZM105.696 43L107.508 43.833L108 45.598L107.421 47.278L105.696 48L104.072 47.18L103 45.598L103.81 43.761L105.696 43ZM75.696 43L77.508 43.833L78 45.598L77.421 47.278L75.696 48L74.072 47.18L73 45.598L73.81 43.761L75.696 43ZM115.618 63L116.705 63.5L117 64.559L116.653 65.567L115.618 66L114.643 65.508L114 64.558L114.486 63.457L115.618 63Z" fill="#556B8B"/>
</svg>
