<svg width="47" height="20" viewBox="0 0 47 20" fill="none" xmlns="http://www.w3.org/2000/svg">
<path d="M10.088 13.558V16H0.771V0.0939989H3.73V13.558H10.088ZM18.8337 11.182C18.049 11.2187 17.389 11.2883 16.8537 11.391C16.3184 11.4863 15.8894 11.611 15.5667 11.765C15.244 11.919 15.013 12.0987 14.8737 12.304C14.7344 12.5093 14.6647 12.733 14.6647 12.975C14.6647 13.4517 14.804 13.7927 15.0827 13.998C15.3687 14.2033 15.739 14.306 16.1937 14.306C16.751 14.306 17.2314 14.207 17.6347 14.009C18.0454 13.8037 18.445 13.4957 18.8337 13.085V11.182ZM12.6077 6.287C13.9057 5.099 15.4677 4.505 17.2937 4.505C17.9537 4.505 18.544 4.615 19.0647 4.835C19.5854 5.04767 20.0254 5.34833 20.3847 5.737C20.744 6.11833 21.0154 6.57667 21.1987 7.112C21.3894 7.64733 21.4847 8.234 21.4847 8.872V16H20.2527C19.996 16 19.798 15.9633 19.6587 15.89C19.5194 15.8093 19.4094 15.6517 19.3287 15.417L19.0867 14.603C18.8007 14.8597 18.522 15.087 18.2507 15.285C17.9794 15.4757 17.697 15.637 17.4037 15.769C17.1104 15.901 16.795 16 16.4577 16.066C16.1277 16.1393 15.761 16.176 15.3577 16.176C14.881 16.176 14.441 16.1137 14.0377 15.989C13.6344 15.857 13.286 15.6627 12.9927 15.406C12.6994 15.1493 12.472 14.8303 12.3107 14.449C12.1494 14.0677 12.0687 13.624 12.0687 13.118C12.0687 12.832 12.1164 12.5497 12.2117 12.271C12.307 11.985 12.461 11.7137 12.6737 11.457C12.8937 11.2003 13.176 10.9583 13.5207 10.731C13.8654 10.5037 14.287 10.3057 14.7857 10.137C15.2917 9.96833 15.8784 9.83267 16.5457 9.73C17.213 9.62 17.9757 9.554 18.8337 9.532V8.872C18.8337 8.11667 18.6724 7.55933 18.3497 7.2C18.027 6.83333 17.5614 6.65 16.9527 6.65C16.5127 6.65 16.146 6.70133 15.8527 6.804C15.5667 6.90667 15.3137 7.024 15.0937 7.156C14.8737 7.28067 14.672 7.39433 14.4887 7.497C14.3127 7.59967 14.1147 7.651 13.8947 7.651C13.704 7.651 13.5427 7.60333 13.4107 7.508C13.2787 7.40533 13.1724 7.288 13.0917 7.156L12.6077 6.287ZM33.2506 5.836C33.2506 6.02667 33.2176 6.21367 33.1516 6.397C33.0856 6.58033 32.9976 6.73067 32.8876 6.848L27.5306 13.91H33.0856V16H24.3736V14.867C24.3736 14.7423 24.4029 14.5957 24.4616 14.427C24.5202 14.251 24.6082 14.086 24.7256 13.932L30.1376 6.793H24.6926V4.714H33.2506V5.836ZM46.6147 4.714L40.4657 19.102C40.385 19.2927 40.2787 19.4357 40.1467 19.531C40.022 19.6337 39.8277 19.685 39.5637 19.685H37.5397L39.6517 15.153L35.0867 4.714H37.4737C37.6864 4.714 37.8514 4.76533 37.9687 4.868C38.0934 4.97067 38.185 5.088 38.2437 5.22L40.6417 11.072C40.7224 11.27 40.7884 11.468 40.8397 11.666C40.8984 11.864 40.9534 12.0657 41.0047 12.271C41.0707 12.0657 41.1367 11.864 41.2027 11.666C41.2687 11.4607 41.342 11.259 41.4227 11.061L43.6887 5.22C43.7474 5.07333 43.8427 4.95233 43.9747 4.857C44.114 4.76167 44.268 4.714 44.4367 4.714H46.6147Z" fill="white"/>
</svg>
