<svg width="519" height="519" viewBox="0 0 519 519" fill="none" xmlns="http://www.w3.org/2000/svg">
<g filter="url(#filter0_d)">
<path fill-rule="evenodd" clip-rule="evenodd" d="M259.5 482C385.145 482 487 380.145 487 254.5C487 128.855 385.145 27 259.5 27C133.855 27 32 128.855 32 254.5C32 380.145 133.855 482 259.5 482Z" fill="#010101"/>
<path d="M259.5 490.5C389.839 490.5 495.5 384.839 495.5 254.5C495.5 124.161 389.839 18.5 259.5 18.5C129.161 18.5 23.5 124.161 23.5 254.5C23.5 384.839 129.161 490.5 259.5 490.5Z" stroke="url(#paint0_linear)" stroke-width="17"/>
</g>
<mask id="mask0" mask-type="alpha" maskUnits="userSpaceOnUse" x="32" y="27" width="455" height="455">
<path d="M482 254.5C482 377.383 382.383 477 259.5 477C136.617 477 37 377.383 37 254.5C37 131.617 136.617 32 259.5 32C382.383 32 482 131.617 482 254.5Z" fill="white" stroke="white" stroke-width="10"/>
</mask>
<g mask="url(#mask0)">
<g filter="url(#filter1_f)">
<circle cx="256.5" cy="256.5" r="111.5" fill="#1F1D1F" fill-opacity="0.8"/>
</g>
</g>
<g clip-path="url(#clip0)">
<path d="M327.378 269.448L304.755 275.162L291.695 223.452L314.318 217.738C333.919 212.788 345.84 192.811 340.89 173.209C335.939 153.608 315.962 141.687 296.361 146.638C276.759 151.588 264.838 171.566 269.789 191.167L275.503 213.79L223.793 226.85L218.079 204.227C213.129 184.626 193.151 172.705 173.55 177.655C153.949 182.606 142.028 202.583 146.979 222.184C151.929 241.786 171.907 253.707 191.508 248.756L214.131 243.042L227.191 294.752L204.568 300.466C184.967 305.416 173.046 325.393 177.996 344.995C182.947 364.596 202.924 376.517 222.525 371.566C242.127 366.616 254.047 346.638 249.097 327.037L243.383 304.414L295.093 291.354L300.807 313.977C305.757 333.578 325.734 345.499 345.336 340.549C364.937 335.598 376.858 315.621 371.907 296.02C366.957 276.418 346.979 264.497 327.378 269.448ZM282.716 187.902C279.566 175.43 287.151 162.716 299.626 159.565C312.101 156.414 324.812 164.003 327.962 176.474C331.112 188.946 323.528 201.66 311.053 204.811L288.43 210.525L282.716 187.902ZM188.243 235.829C175.768 238.979 163.056 231.391 159.906 218.919C156.756 206.448 164.34 193.733 176.815 190.583C189.29 187.432 202.002 195.02 205.152 207.492L210.866 230.115L188.243 235.829ZM236.17 330.302C239.319 342.774 231.735 355.488 219.26 358.639C206.785 361.79 194.074 354.201 190.924 341.73C187.774 329.258 195.358 316.544 207.833 313.393L230.456 307.679L236.17 330.302ZM240.118 291.487L227.058 239.777L278.768 226.717L291.828 278.427L240.118 291.487ZM342.071 327.621C329.596 330.772 316.884 323.184 313.734 310.712L308.02 288.089L330.643 282.375C343.118 279.225 355.83 286.813 358.98 299.285C362.13 311.756 354.546 324.471 342.071 327.621Z" fill="url(#paint1_linear)"/>
</g>
<defs>
<filter id="filter0_d" x="0" y="0" width="519" height="519" filterUnits="userSpaceOnUse" color-interpolation-filters="sRGB">
<feFlood flood-opacity="0" result="BackgroundImageFix"/>
<feColorMatrix in="SourceAlpha" type="matrix" values="0 0 0 0 0 0 0 0 0 0 0 0 0 0 0 0 0 0 127 0"/>
<feOffset dy="5"/>
<feGaussianBlur stdDeviation="7.5"/>
<feColorMatrix type="matrix" values="0 0 0 0 0 0 0 0 0 0 0 0 0 0 0 0 0 0 1 0"/>
<feBlend mode="normal" in2="BackgroundImageFix" result="effect1_dropShadow"/>
<feBlend mode="normal" in="SourceGraphic" in2="effect1_dropShadow" result="shape"/>
</filter>
<filter id="filter1_f" x="95" y="95" width="323" height="323" filterUnits="userSpaceOnUse" color-interpolation-filters="sRGB">
<feFlood flood-opacity="0" result="BackgroundImageFix"/>
<feBlend mode="normal" in="SourceGraphic" in2="BackgroundImageFix" result="shape"/>
<feGaussianBlur stdDeviation="25" result="effect1_foregroundBlur"/>
</filter>
<linearGradient id="paint0_linear" x1="259.5" y1="27" x2="259.5" y2="482" gradientUnits="userSpaceOnUse">
<stop stop-color="#353434"/>
<stop offset="1" stop-color="#0A0909"/>
</linearGradient>
<linearGradient id="paint1_linear" x1="156" y1="285.5" x2="367.28" y2="217.813" gradientUnits="userSpaceOnUse">
<stop offset="0.0410831" stop-color="#E6D3FE"/>
<stop offset="0.105358" stop-color="#E7E3FA"/>
<stop offset="0.185141" stop-color="#F3CDEB"/>
<stop offset="0.301367" stop-color="#BEBDFF"/>
<stop offset="0.575672" stop-color="#AE9EF8"/>
<stop offset="0.843352" stop-color="#52CDEA"/>
<stop offset="0.949859" stop-color="#49ADE6"/>
</linearGradient>
<clipPath id="clip0">
<rect width="231.278" height="231.278" fill="white" transform="translate(124 177.634) rotate(-14.1744)"/>
</clipPath>
</defs>
</svg>
