<svg width="519" height="519" viewBox="0 0 519 519" fill="none" xmlns="http://www.w3.org/2000/svg">
<g filter="url(#filter0_d)">
<path fill-rule="evenodd" clip-rule="evenodd" d="M259.5 482C385.145 482 487 380.145 487 254.5C487 128.855 385.145 27 259.5 27C133.855 27 32 128.855 32 254.5C32 380.145 133.855 482 259.5 482Z" fill="#010101"/>
<path d="M259.5 490.5C389.839 490.5 495.5 384.839 495.5 254.5C495.5 124.161 389.839 18.5 259.5 18.5C129.161 18.5 23.5 124.161 23.5 254.5C23.5 384.839 129.161 490.5 259.5 490.5Z" stroke="url(#paint0_linear)" stroke-width="17"/>
</g>
<mask id="mask0" mask-type="alpha" maskUnits="userSpaceOnUse" x="32" y="27" width="455" height="455">
<path d="M482 254.5C482 377.383 382.383 477 259.5 477C136.617 477 37 377.383 37 254.5C37 131.617 136.617 32 259.5 32C382.383 32 482 131.617 482 254.5Z" fill="white" stroke="white" stroke-width="10"/>
</mask>
<g mask="url(#mask0)">
<g filter="url(#filter1_f)">
<circle cx="256.5" cy="256.5" r="111.5" fill="#1F1D1F" fill-opacity="0.8"/>
</g>
</g>
<g clip-path="url(#clip0)">
<path d="M327.378 269.448L304.755 275.162L291.695 223.452L314.318 217.738C333.919 212.788 345.84 192.811 340.89 173.209C335.939 153.608 315.962 141.687 296.361 146.638C276.759 151.588 264.838 171.566 269.789 191.167L275.503 213.79L223.793 226.85L218.079 204.227C213.129 184.626 193.151 172.705 173.55 177.655C153.949 182.606 142.028 202.583 146.979 222.184C151.929 241.786 171.907 253.707 191.508 248.756L214.131 243.042L227.191 294.752L204.568 300.466C184.967 305.416 173.046 325.393 177.996 344.995C182.947 364.596 202.924 376.517 222.525 371.566C242.127 366.616 254.047 346.638 249.097 327.037L243.383 304.414L295.093 291.354L300.807 313.977C305.757 333.578 325.734 345.499 345.336 340.549C364.937 335.598 376.858 315.621 371.907 296.02C366.957 276.418 346.979 264.497 327.378 269.448ZM282.716 187.902C279.566 175.43 287.151 162.716 299.626 159.565C312.101 156.414 324.812 164.003 327.962 176.474C331.112 188.946 323.528 201.66 311.053 204.811L288.43 210.525L282.716 187.902ZM188.243 235.829C175.768 238.979 163.056 231.391 159.906 218.919C156.756 206.448 164.34 193.733 176.815 190.583C189.29 187.432 202.002 195.02 205.152 207.492L210.866 230.115L188.243 235.829ZM236.17 330.302C239.319 342.774 231.735 355.488 219.26 358.639C206.785 361.79 194.074 354.201 190.924 341.73C187.774 329.258 195.358 316.544 207.833 313.393L230.456 307.679L236.17 330.302ZM240.118 291.487L227.058 239.777L278.768 226.717L291.828 278.427L240.118 291.487ZM342.071 327.621C329.596 330.772 316.884 323.184 313.734 310.712L308.02 288.089L330.643 282.375C343.118 279.225 355.83 286.813 358.98 299.285C362.13 311.756 354.546 324.471 342.071 327.621Z" fill="url(#paint1_linear)"/>
</g>
<path d="M312.686 62L311.771 64.3766C311.348 65.4776 310.478 66.3477 309.377 66.7711L307 67.6852L309.377 68.5993C310.478 69.0228 311.348 69.8928 311.771 70.9938L312.686 73.3705L313.6 70.9938C314.023 69.8928 314.893 69.0228 315.994 68.5993L318.371 67.6852L315.994 66.7711C314.893 66.3477 314.023 65.4776 313.6 64.3766L312.686 62Z" fill="white"/>
<path d="M147.411 94L146.863 95.426C146.609 96.0866 146.087 96.6086 145.426 96.8627L144 97.4111L145.426 97.9596C146.087 98.2137 146.609 98.7357 146.863 99.3963L147.411 100.822L147.96 99.3963C148.214 98.7357 148.736 98.2137 149.396 97.9596L150.822 97.4111L149.396 96.8627C148.736 96.6086 148.214 96.0866 147.96 95.426L147.411 94Z" fill="white"/>
<path opacity="0.85" d="M279.411 80L278.863 81.426C278.609 82.0866 278.087 82.6086 277.426 82.8627L276 83.4111L277.426 83.9596C278.087 84.2137 278.609 84.7357 278.863 85.3963L279.411 86.8223L279.96 85.3963C280.214 84.7357 280.736 84.2137 281.396 83.9596L282.822 83.4111L281.396 82.8627C280.736 82.6086 280.214 82.0866 279.96 81.426L279.411 80Z" fill="white"/>
<path d="M140.411 142L139.863 143.426C139.609 144.087 139.087 144.609 138.426 144.863L137 145.411L138.426 145.96C139.087 146.214 139.609 146.736 139.863 147.396L140.411 148.822L140.96 147.396C141.214 146.736 141.736 146.214 142.396 145.96L143.822 145.411L142.396 144.863C141.736 144.609 141.214 144.087 140.96 143.426L140.411 142Z" fill="white"/>
<path d="M222.411 110L221.863 111.426C221.609 112.087 221.087 112.609 220.426 112.863L219 113.411L220.426 113.96C221.087 114.214 221.609 114.736 221.863 115.396L222.411 116.822L222.96 115.396C223.214 114.736 223.736 114.214 224.396 113.96L225.822 113.411L224.396 112.863C223.736 112.609 223.214 112.087 222.96 111.426L222.411 110Z" fill="white"/>
<path d="M173.686 67L172.771 69.3766C172.348 70.4776 171.478 71.3477 170.377 71.7711L168 72.6852L170.377 73.5993C171.478 74.0228 172.348 74.8928 172.771 75.9938L173.686 78.3705L174.6 75.9938C175.023 74.8928 175.893 74.0228 176.994 73.5993L179.371 72.6852L176.994 71.7711C175.893 71.3477 175.023 70.4776 174.6 69.3766L173.686 67Z" fill="white"/>
<path d="M56.6855 221L55.7715 223.377C55.348 224.478 54.4779 225.348 53.3769 225.771L51.0003 226.685L53.3769 227.599C54.4779 228.023 55.348 228.893 55.7715 229.994L56.6855 232.37L57.5996 229.994C58.0231 228.893 58.8932 228.023 59.9941 227.599L62.3708 226.685L59.9941 225.771C58.8932 225.348 58.0231 224.478 57.5996 223.377L56.6855 221Z" fill="white"/>
<path d="M91.6855 159L90.7715 161.377C90.348 162.478 89.4779 163.348 88.3769 163.771L86.0003 164.685L88.3769 165.599C89.4779 166.023 90.348 166.893 90.7715 167.994L91.6855 170.37L92.5996 167.994C93.0231 166.893 93.8932 166.023 94.9941 165.599L97.3708 164.685L94.9941 163.771C93.8932 163.348 93.0231 162.478 92.5996 161.377L91.6855 159Z" fill="white"/>
<path d="M105.411 263L104.863 264.426C104.609 265.087 104.087 265.609 103.426 265.863L102 266.411L103.426 266.96C104.087 267.214 104.609 267.736 104.863 268.396L105.411 269.822L105.96 268.396C106.214 267.736 106.736 267.214 107.396 266.96L108.822 266.411L107.396 265.863C106.736 265.609 106.214 265.087 105.96 264.426L105.411 263Z" fill="white"/>
<path d="M122.411 343L121.863 344.426C121.609 345.087 121.087 345.609 120.426 345.863L119 346.411L120.426 346.96C121.087 347.214 121.609 347.736 121.863 348.396L122.411 349.822L122.96 348.396C123.214 347.736 123.736 347.214 124.396 346.96L125.822 346.411L124.396 345.863C123.736 345.609 123.214 345.087 122.96 344.426L122.411 343Z" fill="white" fill-opacity="0.6"/>
<path d="M137.411 402L136.863 403.426C136.609 404.087 136.087 404.609 135.426 404.863L134 405.411L135.426 405.96C136.087 406.214 136.609 406.736 136.863 407.396L137.411 408.822L137.96 407.396C138.214 406.736 138.736 406.214 139.396 405.96L140.822 405.411L139.396 404.863C138.736 404.609 138.214 404.087 137.96 403.426L137.411 402Z" fill="white" fill-opacity="0.9"/>
<path d="M270.411 442L269.863 443.426C269.609 444.087 269.087 444.609 268.426 444.863L267 445.411L268.426 445.96C269.087 446.214 269.609 446.736 269.863 447.396L270.411 448.822L270.96 447.396C271.214 446.736 271.736 446.214 272.396 445.96L273.822 445.411L272.396 444.863C271.736 444.609 271.214 444.087 270.96 443.426L270.411 442Z" fill="white" fill-opacity="0.7"/>
<path d="M74.6855 320L73.7715 322.377C73.348 323.478 72.4779 324.348 71.3769 324.771L69.0003 325.685L71.3769 326.599C72.4779 327.023 73.348 327.893 73.7715 328.994L74.6855 331.37L75.5996 328.994C76.0231 327.893 76.8932 327.023 77.9941 326.599L80.3708 325.685L77.9941 324.771C76.8932 324.348 76.0231 323.478 75.5996 322.377L74.6855 320Z" fill="white" fill-opacity="0.8"/>
<path d="M204.686 415L203.771 417.377C203.348 418.478 202.478 419.348 201.377 419.771L199 420.685L201.377 421.599C202.478 422.023 203.348 422.893 203.771 423.994L204.686 426.37L205.6 423.994C206.023 422.893 206.893 422.023 207.994 421.599L210.371 420.685L207.994 419.771C206.893 419.348 206.023 418.478 205.6 417.377L204.686 415Z" fill="white" fill-opacity="0.8"/>
<path d="M317.686 391L316.771 393.377C316.348 394.478 315.478 395.348 314.377 395.771L312 396.685L314.377 397.599C315.478 398.023 316.348 398.893 316.771 399.994L317.686 402.37L318.6 399.994C319.023 398.893 319.893 398.023 320.994 397.599L323.371 396.685L320.994 395.771C319.893 395.348 319.023 394.478 318.6 393.377L317.686 391Z" fill="white" fill-opacity="0.5"/>
<path d="M443.411 190L442.863 191.426C442.609 192.087 442.087 192.609 441.426 192.863L440 193.411L441.426 193.96C442.087 194.214 442.609 194.736 442.863 195.396L443.411 196.822L443.96 195.396C444.214 194.736 444.736 194.214 445.396 193.96L446.822 193.411L445.396 192.863C444.736 192.609 444.214 192.087 443.96 191.426L443.411 190Z" fill="white"/>
<path d="M444.411 260L443.863 261.426C443.609 262.087 443.087 262.609 442.426 262.863L441 263.411L442.426 263.96C443.087 264.214 443.609 264.736 443.863 265.396L444.411 266.822L444.96 265.396C445.214 264.736 445.736 264.214 446.396 263.96L447.822 263.411L446.396 262.863C445.736 262.609 445.214 262.087 444.96 261.426L444.411 260Z" fill="white" fill-opacity="0.9"/>
<path d="M405.411 370L404.863 371.426C404.609 372.087 404.087 372.609 403.426 372.863L402 373.411L403.426 373.96C404.087 374.214 404.609 374.736 404.863 375.396L405.411 376.822L405.96 375.396C406.214 374.736 406.736 374.214 407.396 373.96L408.822 373.411L407.396 372.863C406.736 372.609 406.214 372.087 405.96 371.426L405.411 370Z" fill="white" fill-opacity="0.5"/>
<path d="M361.411 409L360.863 410.426C360.609 411.087 360.087 411.609 359.426 411.863L358 412.411L359.426 412.96C360.087 413.214 360.609 413.736 360.863 414.396L361.411 415.822L361.96 414.396C362.214 413.736 362.736 413.214 363.396 412.96L364.822 412.411L363.396 411.863C362.736 411.609 362.214 411.087 361.96 410.426L361.411 409Z" fill="white" fill-opacity="0.5"/>
<path d="M362.411 107L361.863 108.426C361.609 109.087 361.087 109.609 360.426 109.863L359 110.411L360.426 110.96C361.087 111.214 361.609 111.736 361.863 112.396L362.411 113.822L362.96 112.396C363.214 111.736 363.736 111.214 364.396 110.96L365.822 110.411L364.396 109.863C363.736 109.609 363.214 109.087 362.96 108.426L362.411 107Z" fill="white"/>
<path d="M398.686 131L397.771 133.377C397.348 134.478 396.478 135.348 395.377 135.771L393 136.685L395.377 137.599C396.478 138.023 397.348 138.893 397.771 139.994L398.686 142.37L399.6 139.994C400.023 138.893 400.893 138.023 401.994 137.599L404.371 136.685L401.994 135.771C400.893 135.348 400.023 134.478 399.6 133.377L398.686 131Z" fill="white"/>
<path d="M407.686 215L406.771 217.377C406.348 218.478 405.478 219.348 404.377 219.771L402 220.685L404.377 221.599C405.478 222.023 406.348 222.893 406.771 223.994L407.686 226.37L408.6 223.994C409.023 222.893 409.893 222.023 410.994 221.599L413.371 220.685L410.994 219.771C409.893 219.348 409.023 218.478 408.6 217.377L407.686 215Z" fill="white"/>
<path d="M432.686 320L431.771 322.377C431.348 323.478 430.478 324.348 429.377 324.771L427 325.685L429.377 326.599C430.478 327.023 431.348 327.893 431.771 328.994L432.686 331.37L433.6 328.994C434.023 327.893 434.893 327.023 435.994 326.599L438.371 325.685L435.994 324.771C434.893 324.348 434.023 323.478 433.6 322.377L432.686 320Z" fill="white" fill-opacity="0.8"/>
<defs>
<filter id="filter0_d" x="0" y="0" width="519" height="519" filterUnits="userSpaceOnUse" color-interpolation-filters="sRGB">
<feFlood flood-opacity="0" result="BackgroundImageFix"/>
<feColorMatrix in="SourceAlpha" type="matrix" values="0 0 0 0 0 0 0 0 0 0 0 0 0 0 0 0 0 0 127 0"/>
<feOffset dy="5"/>
<feGaussianBlur stdDeviation="7.5"/>
<feColorMatrix type="matrix" values="0 0 0 0 0 0 0 0 0 0 0 0 0 0 0 0 0 0 1 0"/>
<feBlend mode="normal" in2="BackgroundImageFix" result="effect1_dropShadow"/>
<feBlend mode="normal" in="SourceGraphic" in2="effect1_dropShadow" result="shape"/>
</filter>
<filter id="filter1_f" x="95" y="95" width="323" height="323" filterUnits="userSpaceOnUse" color-interpolation-filters="sRGB">
<feFlood flood-opacity="0" result="BackgroundImageFix"/>
<feBlend mode="normal" in="SourceGraphic" in2="BackgroundImageFix" result="shape"/>
<feGaussianBlur stdDeviation="25" result="effect1_foregroundBlur"/>
</filter>
<linearGradient id="paint0_linear" x1="259.5" y1="27" x2="259.5" y2="482" gradientUnits="userSpaceOnUse">
<stop stop-color="#353434"/>
<stop offset="1" stop-color="#0A0909"/>
</linearGradient>
<linearGradient id="paint1_linear" x1="156" y1="285.5" x2="367.28" y2="217.813" gradientUnits="userSpaceOnUse">
<stop offset="0.0410831" stop-color="#E6D3FE"/>
<stop offset="0.105358" stop-color="#E7E3FA"/>
<stop offset="0.185141" stop-color="#F3CDEB"/>
<stop offset="0.301367" stop-color="#BEBDFF"/>
<stop offset="0.575672" stop-color="#AE9EF8"/>
<stop offset="0.843352" stop-color="#52CDEA"/>
<stop offset="0.949859" stop-color="#49ADE6"/>
</linearGradient>
<clipPath id="clip0">
<rect width="231.278" height="231.278" fill="white" transform="translate(124 177.634) rotate(-14.1744)"/>
</clipPath>
</defs>
</svg>
