<svg class="icon" width="116" height="116" viewBox="0 0 116 116" fill="none" xmlns="http://www.w3.org/2000/svg">
<path d="M58.04 0.166016C26.101 0.166016 0.207031 26.06 0.207031 57.999C0.207031 89.939 26.1 115.834 58.04 115.834C89.981 115.834 115.876 89.939 115.876 57.999C115.875 26.06 89.981 0.166016 58.04 0.166016ZM34.042 26.25C37.976 26.25 41.167 29.16 41.167 32.75C41.167 36.34 37.976 39.25 34.042 39.25C30.106 39.25 26.917 36.34 26.917 32.75C26.917 29.16 30.106 26.25 34.042 26.25ZM41.221 81.845H27.143V45.11H41.221V81.845V81.845ZM89.059 81.845H74.913V61.645C74.913 59.339 74.485 57.707 73.632 56.749C72.778 55.793 71.579 55.313 70.036 55.313C68.329 55.313 66.944 55.959 65.884 57.251C64.823 58.543 64.294 60.86 64.294 64.204V81.845H50.215V45.11H63.324V51.093C65.283 48.65 67.267 46.903 69.273 45.853C71.279 44.804 73.722 44.28 76.605 44.28C80.503 44.28 83.552 45.438 85.755 47.756C87.956 50.073 89.058 53.653 89.058 58.496V81.845H89.059Z" fill="white"/>
</svg>
