<svg class="icon" width="116" height="116" viewBox="0 0 116 116" fill="none" xmlns="http://www.w3.org/2000/svg">
<path d="M58.04 0.165039C26.1 0.165039 0.207031 26.059 0.207031 57.999C0.207031 89.938 26.1 115.835 58.04 115.835C89.981 115.835 115.875 89.939 115.875 57.999C115.875 26.059 89.981 0.165039 58.04 0.165039ZM86.272 43.631C86.272 43.631 87.647 50.446 82.713 62.418C77.777 74.39 65.563 85.715 48.739 86.767C31.914 87.818 22.852 80.376 22.852 80.376C35.472 81.347 41.053 76.17 44.046 74.471C32.317 72.934 30.618 64.117 30.618 64.117C31.75 64.603 35.228 64.441 37.089 63.956C25.604 61.125 25.361 49.558 25.361 49.558C25.361 49.558 29.647 51.742 32.074 51.337C20.991 42.924 27.464 31.923 27.464 31.923C42.105 47.94 57.635 47.05 57.635 47.05L57.705 47.155C57.423 46.027 57.271 44.847 57.271 43.632C57.271 35.624 63.763 29.133 71.771 29.133C76.001 29.133 79.808 30.946 82.459 33.836L82.551 33.784C87.727 33.46 91.53 30.71 91.53 30.71C89.954 35.314 86.606 37.459 85.208 38.181C85.226 38.224 85.243 38.267 85.259 38.309C87.068 37.871 91.921 36.684 93.23 36.292C90.397 41.468 86.272 43.631 86.272 43.631Z" fill="white"/>
</svg>
